<mxfile host="app.diagrams.net" modified="2023-05-21T23:16:04.449Z" agent="Mozilla/5.0 (Windows NT 10.0; Win64; x64) AppleWebKit/537.36 (KHTML, like Gecko) Chrome/113.0.0.0 Safari/537.36" etag="YWXgENwx8nmDtCj_5BUn" version="21.3.2" type="github">
  <diagram name="Page-1" id="b5b7bab2-c9e2-2cf4-8b2a-24fd1a2a6d21">
    <mxGraphModel dx="544" dy="598" grid="1" gridSize="10" guides="1" tooltips="1" connect="1" arrows="1" fold="1" page="1" pageScale="1" pageWidth="827" pageHeight="1169" background="none" math="0" shadow="0">
      <root>
        <mxCell id="0" />
        <mxCell id="1" parent="0" />
        <mxCell id="39Vs8Bn4wgAk7Haaq22x-6" style="edgeStyle=entityRelationEdgeStyle;rounded=0;orthogonalLoop=1;jettySize=auto;html=1;exitX=0.5;exitY=0.5;exitDx=0;exitDy=0;exitPerimeter=0;" edge="1" parent="1" source="39Vs8Bn4wgAk7Haaq22x-1" target="39Vs8Bn4wgAk7Haaq22x-5">
          <mxGeometry relative="1" as="geometry" />
        </mxCell>
        <mxCell id="39Vs8Bn4wgAk7Haaq22x-17" style="edgeStyle=orthogonalEdgeStyle;rounded=0;orthogonalLoop=1;jettySize=auto;html=1;exitX=0.5;exitY=0.5;exitDx=0;exitDy=0;exitPerimeter=0;entryX=1;entryY=0.5;entryDx=0;entryDy=0;" edge="1" parent="1" source="39Vs8Bn4wgAk7Haaq22x-1" target="39Vs8Bn4wgAk7Haaq22x-16">
          <mxGeometry relative="1" as="geometry" />
        </mxCell>
        <mxCell id="39Vs8Bn4wgAk7Haaq22x-1" value="&lt;b&gt;Usuário&lt;/b&gt;" style="shape=umlActor;verticalLabelPosition=bottom;verticalAlign=top;html=1;" vertex="1" parent="1">
          <mxGeometry x="450" y="555" width="30" height="60" as="geometry" />
        </mxCell>
        <mxCell id="39Vs8Bn4wgAk7Haaq22x-7" style="edgeStyle=entityRelationEdgeStyle;rounded=0;orthogonalLoop=1;jettySize=auto;html=1;exitX=0.5;exitY=0.5;exitDx=0;exitDy=0;exitPerimeter=0;entryX=0;entryY=0.5;entryDx=0;entryDy=0;" edge="1" parent="1" source="39Vs8Bn4wgAk7Haaq22x-2" target="39Vs8Bn4wgAk7Haaq22x-5">
          <mxGeometry relative="1" as="geometry">
            <mxPoint x="600" y="540" as="targetPoint" />
          </mxGeometry>
        </mxCell>
        <mxCell id="39Vs8Bn4wgAk7Haaq22x-22" style="edgeStyle=orthogonalEdgeStyle;rounded=0;orthogonalLoop=1;jettySize=auto;html=1;exitX=0.5;exitY=0.5;exitDx=0;exitDy=0;exitPerimeter=0;entryX=1;entryY=0.5;entryDx=0;entryDy=0;" edge="1" parent="1" source="39Vs8Bn4wgAk7Haaq22x-2" target="39Vs8Bn4wgAk7Haaq22x-21">
          <mxGeometry relative="1" as="geometry" />
        </mxCell>
        <mxCell id="39Vs8Bn4wgAk7Haaq22x-2" value="&lt;b&gt;Professor&lt;/b&gt;" style="shape=umlActor;verticalLabelPosition=bottom;verticalAlign=top;html=1;" vertex="1" parent="1">
          <mxGeometry x="451" y="430" width="30" height="60" as="geometry" />
        </mxCell>
        <mxCell id="39Vs8Bn4wgAk7Haaq22x-9" style="edgeStyle=entityRelationEdgeStyle;rounded=0;orthogonalLoop=1;jettySize=auto;html=1;exitX=0.5;exitY=0.5;exitDx=0;exitDy=0;exitPerimeter=0;entryX=0;entryY=0.5;entryDx=0;entryDy=0;" edge="1" parent="1" source="39Vs8Bn4wgAk7Haaq22x-3" target="39Vs8Bn4wgAk7Haaq22x-5">
          <mxGeometry relative="1" as="geometry" />
        </mxCell>
        <mxCell id="39Vs8Bn4wgAk7Haaq22x-26" style="edgeStyle=orthogonalEdgeStyle;rounded=0;orthogonalLoop=1;jettySize=auto;html=1;exitX=0.5;exitY=0.5;exitDx=0;exitDy=0;exitPerimeter=0;entryX=1;entryY=0.5;entryDx=0;entryDy=0;" edge="1" parent="1" source="39Vs8Bn4wgAk7Haaq22x-3" target="39Vs8Bn4wgAk7Haaq22x-25">
          <mxGeometry relative="1" as="geometry" />
        </mxCell>
        <mxCell id="39Vs8Bn4wgAk7Haaq22x-3" value="&lt;b&gt;Corretor&lt;/b&gt;" style="shape=umlActor;verticalLabelPosition=bottom;verticalAlign=top;html=1;" vertex="1" parent="1">
          <mxGeometry x="452" y="680" width="30" height="60" as="geometry" />
        </mxCell>
        <mxCell id="39Vs8Bn4wgAk7Haaq22x-8" style="edgeStyle=entityRelationEdgeStyle;rounded=0;orthogonalLoop=1;jettySize=auto;html=1;exitX=0.5;exitY=0.5;exitDx=0;exitDy=0;exitPerimeter=0;entryX=0;entryY=0.5;entryDx=0;entryDy=0;" edge="1" parent="1" source="39Vs8Bn4wgAk7Haaq22x-4" target="39Vs8Bn4wgAk7Haaq22x-5">
          <mxGeometry relative="1" as="geometry" />
        </mxCell>
        <mxCell id="39Vs8Bn4wgAk7Haaq22x-30" style="edgeStyle=orthogonalEdgeStyle;rounded=0;orthogonalLoop=1;jettySize=auto;html=1;exitX=0.5;exitY=0.5;exitDx=0;exitDy=0;exitPerimeter=0;entryX=1;entryY=0.5;entryDx=0;entryDy=0;" edge="1" parent="1" source="39Vs8Bn4wgAk7Haaq22x-4" target="39Vs8Bn4wgAk7Haaq22x-29">
          <mxGeometry relative="1" as="geometry" />
        </mxCell>
        <mxCell id="39Vs8Bn4wgAk7Haaq22x-4" value="&lt;b&gt;Coordenador&lt;/b&gt;" style="shape=umlActor;verticalLabelPosition=bottom;verticalAlign=top;html=1;" vertex="1" parent="1">
          <mxGeometry x="450" y="310" width="30" height="60" as="geometry" />
        </mxCell>
        <mxCell id="39Vs8Bn4wgAk7Haaq22x-11" value="" style="edgeStyle=orthogonalEdgeStyle;rounded=0;orthogonalLoop=1;jettySize=auto;html=1;" edge="1" parent="1" source="39Vs8Bn4wgAk7Haaq22x-5" target="39Vs8Bn4wgAk7Haaq22x-10">
          <mxGeometry relative="1" as="geometry" />
        </mxCell>
        <mxCell id="39Vs8Bn4wgAk7Haaq22x-5" value="&lt;b&gt;&lt;font style=&quot;font-size: 14px;&quot;&gt;Cadastro&lt;br&gt;e&lt;br&gt;Loguin&lt;/font&gt;&lt;/b&gt;" style="ellipse;whiteSpace=wrap;html=1;" vertex="1" parent="1">
          <mxGeometry x="620" y="500" width="100" height="80" as="geometry" />
        </mxCell>
        <mxCell id="39Vs8Bn4wgAk7Haaq22x-13" value="" style="edgeStyle=orthogonalEdgeStyle;rounded=0;orthogonalLoop=1;jettySize=auto;html=1;" edge="1" parent="1" source="39Vs8Bn4wgAk7Haaq22x-10" target="39Vs8Bn4wgAk7Haaq22x-12">
          <mxGeometry relative="1" as="geometry" />
        </mxCell>
        <mxCell id="39Vs8Bn4wgAk7Haaq22x-10" value="&lt;b&gt;&lt;font style=&quot;font-size: 14px;&quot;&gt;Pesquisar&lt;br&gt;TCC&lt;/font&gt;&lt;/b&gt;" style="ellipse;whiteSpace=wrap;html=1;" vertex="1" parent="1">
          <mxGeometry x="760" y="500" width="100" height="80" as="geometry" />
        </mxCell>
        <mxCell id="39Vs8Bn4wgAk7Haaq22x-15" value="" style="edgeStyle=orthogonalEdgeStyle;rounded=0;orthogonalLoop=1;jettySize=auto;html=1;" edge="1" parent="1" source="39Vs8Bn4wgAk7Haaq22x-12" target="39Vs8Bn4wgAk7Haaq22x-14">
          <mxGeometry relative="1" as="geometry" />
        </mxCell>
        <mxCell id="39Vs8Bn4wgAk7Haaq22x-12" value="&lt;b&gt;&lt;font style=&quot;font-size: 14px;&quot;&gt;Visualizar&lt;br&gt;TCC&lt;/font&gt;&lt;/b&gt;" style="ellipse;whiteSpace=wrap;html=1;" vertex="1" parent="1">
          <mxGeometry x="890" y="500" width="100" height="80" as="geometry" />
        </mxCell>
        <mxCell id="39Vs8Bn4wgAk7Haaq22x-14" value="&lt;b&gt;&lt;font style=&quot;font-size: 14px;&quot;&gt;Editar&lt;br&gt;TCC&lt;/font&gt;&lt;/b&gt;" style="ellipse;whiteSpace=wrap;html=1;" vertex="1" parent="1">
          <mxGeometry x="1020" y="500" width="100" height="80" as="geometry" />
        </mxCell>
        <mxCell id="39Vs8Bn4wgAk7Haaq22x-20" value="" style="edgeStyle=orthogonalEdgeStyle;rounded=0;orthogonalLoop=1;jettySize=auto;html=1;" edge="1" parent="1" source="39Vs8Bn4wgAk7Haaq22x-16" target="39Vs8Bn4wgAk7Haaq22x-19">
          <mxGeometry relative="1" as="geometry" />
        </mxCell>
        <mxCell id="39Vs8Bn4wgAk7Haaq22x-16" value="&lt;b&gt;&lt;font style=&quot;font-size: 14px;&quot;&gt;Enviar TCC&lt;br&gt;para Análise&lt;/font&gt;&lt;/b&gt;" style="ellipse;whiteSpace=wrap;html=1;" vertex="1" parent="1">
          <mxGeometry x="310" y="545" width="100" height="80" as="geometry" />
        </mxCell>
        <mxCell id="39Vs8Bn4wgAk7Haaq22x-19" value="&lt;b&gt;&lt;font style=&quot;font-size: 14px;&quot;&gt;Baixar TCC&lt;br&gt;Aprovado&lt;/font&gt;&lt;/b&gt;" style="ellipse;whiteSpace=wrap;html=1;" vertex="1" parent="1">
          <mxGeometry x="160" y="545" width="100" height="80" as="geometry" />
        </mxCell>
        <mxCell id="39Vs8Bn4wgAk7Haaq22x-24" value="" style="edgeStyle=orthogonalEdgeStyle;rounded=0;orthogonalLoop=1;jettySize=auto;html=1;" edge="1" parent="1" source="39Vs8Bn4wgAk7Haaq22x-21" target="39Vs8Bn4wgAk7Haaq22x-23">
          <mxGeometry relative="1" as="geometry" />
        </mxCell>
        <mxCell id="39Vs8Bn4wgAk7Haaq22x-21" value="&lt;b&gt;&lt;font style=&quot;font-size: 14px;&quot;&gt;Aprovar&lt;br&gt;TCC&lt;/font&gt;&lt;/b&gt;" style="ellipse;whiteSpace=wrap;html=1;" vertex="1" parent="1">
          <mxGeometry x="310" y="420" width="100" height="80" as="geometry" />
        </mxCell>
        <mxCell id="39Vs8Bn4wgAk7Haaq22x-23" value="&lt;b&gt;&lt;font style=&quot;font-size: 14px;&quot;&gt;Status&lt;br&gt;da&lt;br&gt;Orientação&lt;/font&gt;&lt;/b&gt;" style="ellipse;whiteSpace=wrap;html=1;" vertex="1" parent="1">
          <mxGeometry x="160" y="420" width="100" height="80" as="geometry" />
        </mxCell>
        <mxCell id="39Vs8Bn4wgAk7Haaq22x-28" value="" style="edgeStyle=orthogonalEdgeStyle;rounded=0;orthogonalLoop=1;jettySize=auto;html=1;" edge="1" parent="1" source="39Vs8Bn4wgAk7Haaq22x-25" target="39Vs8Bn4wgAk7Haaq22x-27">
          <mxGeometry relative="1" as="geometry" />
        </mxCell>
        <mxCell id="39Vs8Bn4wgAk7Haaq22x-25" value="&lt;b&gt;&lt;font style=&quot;font-size: 14px;&quot;&gt;Avaliar&lt;br&gt;Trabalhos&lt;/font&gt;&lt;/b&gt;" style="ellipse;whiteSpace=wrap;html=1;" vertex="1" parent="1">
          <mxGeometry x="310" y="670" width="100" height="80" as="geometry" />
        </mxCell>
        <mxCell id="39Vs8Bn4wgAk7Haaq22x-27" value="&lt;b&gt;&lt;font style=&quot;font-size: 14px;&quot;&gt;Ranquear&lt;br&gt;Alunos e&lt;br&gt;Cursos&lt;/font&gt;&lt;/b&gt;" style="ellipse;whiteSpace=wrap;html=1;" vertex="1" parent="1">
          <mxGeometry x="160" y="670" width="100" height="80" as="geometry" />
        </mxCell>
        <mxCell id="39Vs8Bn4wgAk7Haaq22x-32" value="" style="edgeStyle=orthogonalEdgeStyle;rounded=0;orthogonalLoop=1;jettySize=auto;html=1;" edge="1" parent="1" source="39Vs8Bn4wgAk7Haaq22x-29" target="39Vs8Bn4wgAk7Haaq22x-31">
          <mxGeometry relative="1" as="geometry" />
        </mxCell>
        <mxCell id="39Vs8Bn4wgAk7Haaq22x-29" value="&lt;b&gt;&lt;font style=&quot;font-size: 14px;&quot;&gt;Vincular&lt;br&gt;Orientador e&lt;br&gt;Aluno&lt;/font&gt;&lt;/b&gt;" style="ellipse;whiteSpace=wrap;html=1;" vertex="1" parent="1">
          <mxGeometry x="310" y="300" width="100" height="80" as="geometry" />
        </mxCell>
        <mxCell id="39Vs8Bn4wgAk7Haaq22x-31" value="&lt;font style=&quot;font-size: 12px;&quot;&gt;&lt;b&gt;Permissão para&lt;br&gt;ser Orientador&lt;/b&gt;&lt;/font&gt;" style="ellipse;whiteSpace=wrap;html=1;" vertex="1" parent="1">
          <mxGeometry x="160" y="300" width="100" height="80" as="geometry" />
        </mxCell>
      </root>
    </mxGraphModel>
  </diagram>
</mxfile>
